<svg height="800px" width="800px" version="1.1" id="Capa_1" xmlns="http://www.w3.org/2000/svg" xmlns:xlink="http://www.w3.org/1999/xlink" 
	 viewBox="0 0 53.269 53.269" xml:space="preserve">
<g>
	<path style="fill:grey;" d="M51.078,24.131c-1.949-2.411-4.911-3.738-8.339-3.738h-0.938L32.327,8.348
		c0.172-0.392,0.272-0.824,0.272-1.28c0-1.761-1.427-3.188-3.188-3.188c-1.459,0-2.675,0.985-3.054,2.322
		c-0.379-1.337-1.595-2.322-3.054-2.322c-1.761,0-3.188,1.427-3.188,3.188c0,0.456,0.099,0.888,0.272,1.28l-9.474,12.045h-0.382
		c-3.428,0-6.39,1.327-8.34,3.738c-1.95,2.41-2.629,5.583-1.913,8.935l0.913,4.274c1.419,6.644,8.1,12.048,14.893,12.048h21.101
		c6.793,0,13.474-5.404,14.893-12.048l0.913-4.274C53.707,29.713,53.028,26.541,51.078,24.131z M22.748,10.2
		c0.181,0.032,0.365,0.056,0.555,0.056c1.459,0,2.675-0.985,3.054-2.323c0.379,1.337,1.595,2.323,3.054,2.323
		c0.191,0,0.375-0.024,0.556-0.056l8.017,10.193H14.731L22.748,10.2z M50.058,32.44l-0.913,4.274
		c-1.14,5.335-6.505,9.675-11.959,9.675H16.085c-5.455,0-10.819-4.34-11.96-9.675L3.212,32.44c-0.523-2.449-0.058-4.729,1.311-6.422
		c1.369-1.692,3.503-2.625,6.008-2.625h32.208c2.505,0,4.639,0.933,6.008,2.625C50.115,27.711,50.581,29.991,50.058,32.44z
		 M15.224,27.337v14.854c0,0.828-0.671,1.5-1.5,1.5s-1.5-0.672-1.5-1.5V27.337c0-0.828,0.671-1.5,1.5-1.5
		C14.553,25.837,15.224,26.508,15.224,27.337z M27.724,27.337v14.854c0,0.828-0.671,1.5-1.5,1.5s-1.5-0.672-1.5-1.5V27.337
		c0-0.828,0.671-1.5,1.5-1.5C27.052,25.837,27.724,26.508,27.724,27.337z M40.223,27.337v14.854c0,0.828-0.671,1.5-1.5,1.5
		s-1.5-0.672-1.5-1.5V27.337c0-0.828,0.671-1.5,1.5-1.5S40.223,26.508,40.223,27.337z"/>
</g>
</svg>